<?xml version="1.0" encoding="UTF-8" standalone="no"?>
<svg
   width="297mm"
   height="210mm"
   viewBox="0 0 297 210"
   version="1.1"
   id="svg8"
   inkscape:version="1.1.2 (0a00cf5339, 2022-02-04)"
   sodipodi:docname="lasercut_parts.svg"
   xmlns:inkscape="http://www.inkscape.org/namespaces/inkscape"
   xmlns:sodipodi="http://sodipodi.sourceforge.net/DTD/sodipodi-0.dtd"
   xmlns="http://www.w3.org/2000/svg"
   xmlns:svg="http://www.w3.org/2000/svg"
   xmlns:rdf="http://www.w3.org/1999/02/22-rdf-syntax-ns#"
   xmlns:cc="http://creativecommons.org/ns#"
   xmlns:dc="http://purl.org/dc/elements/1.1/">
  <defs
     id="defs2">
    <rect
       x="117"
       y="79"
       width="3"
       height="14"
       id="rect1177" />
  </defs>
  <sodipodi:namedview
     id="base"
     pagecolor="#ffffff"
     bordercolor="#666666"
     borderopacity="1.0"
     inkscape:pageopacity="0.0"
     inkscape:pageshadow="2"
     inkscape:zoom="3.959798"
     inkscape:cx="1021.0117"
     inkscape:cy="741.45197"
     inkscape:document-units="mm"
     inkscape:current-layer="layer1"
     inkscape:document-rotation="0"
     showgrid="true"
     inkscape:window-width="1280"
     inkscape:window-height="965"
     inkscape:window-x="0"
     inkscape:window-y="0"
     inkscape:window-maximized="1"
     inkscape:pagecheckerboard="0">
    <inkscape:grid
       type="xygrid"
       id="grid951"
       units="mm"
       spacingx="0.5"
       spacingy="0.5"
       enabled="true" />
  </sodipodi:namedview>
  <metadata
     id="metadata5">
    <rdf:RDF>
      <cc:Work
         rdf:about="">
        <dc:format>image/svg+xml</dc:format>
        <dc:type
           rdf:resource="http://purl.org/dc/dcmitype/StillImage" />
      </cc:Work>
    </rdf:RDF>
  </metadata>
  <g
     inkscape:label="Ebene 1"
     inkscape:groupmode="layer"
     id="layer1">
    <path
       style="fill:none;stroke:#0000ff;stroke-width:0.264583px;stroke-linecap:butt;stroke-linejoin:miter;stroke-opacity:1"
       d="M 279,60 V 4 h 8 v 3 h 6 v 50 h -6 v 3 z"
       id="path963" />
    <path
       id="rect1103"
       style="fill:none;stroke:#0000ff;stroke-width:0.264999;stroke-miterlimit:4;stroke-dasharray:none;stroke-opacity:1"
       d="M 277.00018,99.99991 H 280 v 19.99981 h 3.00033 v 3.00033 h 9.99991 v -3.00033 -50.00005 -2.99982 h -9.99991 v 2.99982 H 280 V 90 h -2.99982 z" />
    <text
       xml:space="preserve"
       id="text1175"
       style="line-height:1.25;font-family:sans-serif;font-weight:bold;font-size:10.58333333px;-inkscape-font-specification:'sans-serif Bold';white-space:pre;shape-inside:url(#rect1177)" />
    <path
       id="rect1189"
       style="fill:none;fill-opacity:1;stroke:#0000ff;stroke-width:0.264999;stroke-miterlimit:4;stroke-dasharray:none;stroke-opacity:1"
       d="m 185.00005,135.99977 v -2.99981 h 3.00033 v -9.99991 h -3.00033 V 73 h 3.00033 V 63.00011 H 185.00005 135 132.00018 V 73 H 135 v 50.00005 h -2.99982 v 9.99991 H 135 v 2.99981 h 20.00033 v -2.99981 h 9.99991 v 2.99981 z m -2.99982,-6.00015 H 138.00034 V 71.00013 h 43.99989 z" />
    <path
       id="rect1296"
       style="fill:none;fill-opacity:1;stroke:#0000ff;stroke-width:0.264999;stroke-miterlimit:4;stroke-dasharray:none;stroke-opacity:1"
       d="m 4,203 h 9.9999 v 3.00033 h 9.99991 V 203 h 9.99991 v -50.00005 h -9.99991 v -2.99982 H 13.9999 v 2.99982 H 4 Z m 17.99993,-24.9778 a 2.0000004,2.0000004 0 0 1 0,-0.0222 2.0000004,2.0000004 0 0 1 1.99988,-1.99987 2.0000004,2.0000004 0 0 1 1.99988,1.99987 2.0000004,2.0000004 0 0 1 -1.99988,2.0004 2.0000004,2.0000004 0 0 1 -1.99988,-1.97817 z m 0.99994,5.99136 a 1,1 0 0 1 0,-0.0134 1,1 0 0 1 0.99994,-0.99994 1,1 0 0 1 0.99994,0.99994 1,1 0 0 1 -0.99994,0.99993 1,1 0 0 1 -0.99994,-0.9865 z m 0,-11.99978 a 1,1 0 0 1 0,-0.0134 1,1 0 0 1 0.99994,-1.00045 1,1 0 0 1 0.99994,1.00045 1,1 0 0 1 -0.99994,0.99994 1,1 0 0 1 -0.99994,-0.9865 z" />
    <path
       id="rect1335"
       style="fill:none;fill-opacity:1;stroke:#0000ff;stroke-width:0.264999;stroke-miterlimit:4;stroke-dasharray:none;stroke-opacity:1"
       d="m 270.00034,67.00018 h -9.99991 V 70 H 250 v 50.00005 h 10.00043 v 3.00033 h 9.99991 V 120.00005 70 Z" />
    <path
       id="rect1517"
       style="fill:none;fill-opacity:0.289575;stroke:#0000ff;stroke-width:0.264999;stroke-miterlimit:4;stroke-dasharray:none;stroke-opacity:1"
       d="M 138.0001,57.00005 H 148 v 3.000332 h 10.00043 V 57.00005 h 44.99983 v 3.000332 h 9.99991 V 57.00005 h 42.00002 v 3.000332 h 9.9999 V 57.00005 H 275 V 7 h -9.99991 V 4.00018 H 254.00025 V 7 H 213.00017 V 4.00018 h -9.99991 V 7 H 158.00043 V 4.00018 H 148 V 7 h -9.9999 z m 25.20001,-12.83643 a 1,1 0 0 1 0,-0.0134 1,1 0 0 1 0.99994,-0.99994 1,1 0 0 1 0.99994,0.99994 1,1 0 0 1 -0.99994,0.99994 1,1 0 0 1 -0.99994,-0.9865 z m 0,-24.29981 a 1,1 0 0 1 0,-0.0134 1,1 0 0 1 0.99994,-1.00044 1,1 0 0 1 0.99994,1.00044 1,1 0 0 1 -0.99994,0.99994 1,1 0 0 1 -0.99994,-0.98649 z m 11.80031,12.63644 v -0.99994 c 0,-0.33717 0.0169,-0.66997 0.0439,-0.99994 h 35.91202 c 0.027,0.32997 0.0439,0.66277 0.0439,0.99994 v 0.99994 c 0,0.3369 -0.0143,0.67028 -0.0413,0.99994 h -35.91718 c -0.027,-0.32966 -0.0413,-0.66304 -0.0413,-0.99994 z m 0.68058,-4.99969 c 0.37963,-1.08046 0.91048,-2.08789 1.56476,-3.00033 h 31.50919 c 0.65428,0.91242 1.18512,1.91992 1.56476,3.00033 z m 0.002,8.99996 h 34.63561 c -0.38023,1.07934 -0.90809,2.08795 -1.56218,2.99982 h -31.51182 c -0.65407,-0.91185 -1.18155,-1.92052 -1.56166,-2.99982 z m 4.66794,5.99964 h 25.29923 c -1.90128,1.26362 -4.18605,2.00039 -6.64973,2.00039 h -11.99983 c -2.46369,0 -4.74847,-0.73677 -6.64972,-2.00039 z m 0,-20.99975 c 1.90075,-1.26405 4.18581,-1.99988 6.64972,-1.99988 h 11.99978 c 2.46391,0 4.74886,0.73583 6.64973,1.99988 z m 46.64986,22.66321 a 1,1 0 0 1 0,-0.0134 1,1 0 0 1 0.99994,-0.99994 1,1 0 0 1 0.99994,0.99994 1,1 0 0 1 -0.99994,0.99994 1,1 0 0 1 -0.99994,-0.9865 z m 0,-24.29981 a 1,1 0 0 1 0,-0.0134 1,1 0 0 1 0.99994,-1.00044 1,1 0 0 1 0.99994,1.00044 1,1 0 0 1 -0.99994,0.99994 1,1 0 0 1 -0.99994,-0.98649 z m 12.99972,19.1363 V 23.99998 h 9.99991 v 15.00013 z" />
    <path
       id="rect1874"
       style="fill:none;fill-opacity:0.289575;stroke:#0000ff;stroke-width:0.264999;stroke-miterlimit:4;stroke-dasharray:none;stroke-opacity:1"
       d="m 273.00023,146.00003 v -2.99982 h 19.99981 v -2.0004 h -1.99987 L 291,133 h 2 v -2 h -50 l -1e-5,12.00021 h 19.99982 v 2.99982 z"
       sodipodi:nodetypes="ccccccccccccc" />
    <path
       id="rect1908"
       style="fill:none;fill-opacity:0.289575;stroke:#0000ff;stroke-width:0.264999;stroke-miterlimit:4;stroke-dasharray:none;stroke-opacity:1"
       d="m 114.00022,59.99978 h 9.99991 V 56.99996 H 126 V 14 h 3.00034 v 42.99996 h 4.99969 V 6.99991 h -9.9999 V 4.0001 h -9.99991 v 2.99981 50.00005 z" />
    <path
       id="rect1943"
       style="fill:none;fill-opacity:0.289575;stroke:#0000ff;stroke-width:0.264999;stroke-miterlimit:4;stroke-dasharray:none;stroke-opacity:1"
       d="m 93,59.99968 h 9.99991 v -2.99982 h 6.00015 V 6.99982 h -6.00015 V 4 H 93 v 2.99982 50.00004 z" />
    <path
       id="rect1984"
       style="fill:none;fill-opacity:0.289575;stroke:#0000ff;stroke-width:0.264999;stroke-miterlimit:4;stroke-dasharray:none;stroke-opacity:1"
       d="m 183.99988,206.00014 v -9.99991 h 3.00032 v -10.00042 h -3.00032 V 166 h 3.00032 v -9.99991 h -3.00032 v -9.99991 h -50.00006 v 9.99991 H 131 V 166 h 2.99982 v 19.99981 H 131 v 10.00042 h 2.99982 v 9.99991 z" />
    <path
       id="rect1984-1"
       style="fill:none;fill-opacity:0.289575;stroke:#0000ff;stroke-width:0.264999;stroke-miterlimit:4;stroke-dasharray:none;stroke-opacity:1"
       d="m 242.99988,206.00005 v -9.99991 h 3.00032 v -10.00042 h -3.00032 v -19.99981 h 3.00032 V 156 h -3.00032 v -9.99991 h -10.70012 v 51.20003 h -3.00032 v -51.20003 h -22.59968 v 51.20003 h -3.00032 V 146.00009 H 192.99982 V 156 H 190 v 9.99991 h 2.99982 v 19.99981 H 190 v 10.00042 h 2.99982 v 9.99991 z"
       sodipodi:nodetypes="ccccccccccccccccccccccccccccc" />
    <path
       id="path1335-5"
       style="fill:none;fill-opacity:1;stroke:#0000ff;stroke-width:1.00157;stroke-linecap:butt;stroke-linejoin:miter;stroke-miterlimit:4;stroke-dasharray:none;stroke-opacity:1"
       d="M 15.117188 15.117188 L 15.117188 555.58984 L 215.43359 555.58984 L 215.43359 480 C 215.43359 480 182.38933 470.01199 177.63672 430.86523 C 172.8841 391.71848 226.87195 276.03295 262.97266 245.19531 C 299.07336 214.35761 302.46614 215.73053 322.88281 208.23047 C 329.60504 206.04462 335.4752 199.38727 333.75 191.4375 C 332.02483 183.48749 300.39432 45.165602 294.80273 15.117188 L 15.117188 15.117188 z M 75.589844 26.457031 L 113.38477 26.457031 L 113.38477 37.794922 L 75.589844 37.794922 L 75.589844 26.457031 z M 207.87305 26.457031 L 245.66992 26.457031 L 245.66992 37.794922 L 207.87305 37.794922 L 207.87305 26.457031 z M 160.63086 28.345703 A 3.7795276 3.7795276 0 0 1 164.41016 32.126953 A 3.7795276 3.7795276 0 0 1 160.63086 35.90625 A 3.7795276 3.7795276 0 0 1 156.84961 32.126953 A 3.7795276 3.7795276 0 0 1 160.63086 28.345703 z M 26.457031 52.912109 L 37.794922 52.912109 L 37.794922 90.708984 L 26.457031 90.708984 L 26.457031 52.912109 z M 283.46484 52.912109 L 294.80273 52.912109 L 294.80273 90.708984 L 283.46484 90.708984 L 283.46484 52.912109 z M 75.589844 109.60547 L 113.38477 109.60547 L 113.38477 120.94336 L 75.589844 120.94336 L 75.589844 109.60547 z M 188.97656 109.60547 L 226.77148 109.60547 L 226.77148 120.94336 L 188.97656 120.94336 L 188.97656 109.60547 z M 306.71875 127.95703 L 319.02734 163.69141 L 308.30664 167.38477 L 295.99805 131.64844 L 306.71875 127.95703 z M 75.589844 139.8418 L 113.38477 139.8418 L 113.38477 151.17969 L 75.589844 151.17969 L 75.589844 139.8418 z M 188.97656 139.8418 L 226.77148 139.8418 L 226.77148 151.17969 L 188.97656 151.17969 L 188.97656 139.8418 z M 298.75 198.79102 L 302.45312 209.50781 L 266.72852 221.84961 L 263.02734 211.13281 L 298.75 198.79102 z M 211.69727 212.42188 L 222.14648 216.82617 L 207.46875 251.6543 L 197.01953 247.25195 L 211.69727 212.42188 z M 237.82031 223.43164 L 248.26953 227.83594 L 233.5918 262.66406 L 223.14258 258.26172 L 237.82031 223.43164 z M 26.457031 249.44727 L 37.794922 249.44727 L 37.794922 287.24414 L 26.457031 287.24414 L 26.457031 249.44727 z M 149.75 432.4043 L 160.19922 436.80664 L 145.51953 471.63477 L 135.07031 467.23242 L 149.75 432.4043 z M 108.94727 456.22266 L 119.39648 460.625 L 104.71875 495.45508 L 94.269531 491.05078 L 108.94727 456.22266 z M 26.457031 457.32227 L 37.794922 457.32227 L 37.794922 495.11719 L 26.457031 495.11719 L 26.457031 457.32227 z M 155.96875 476.03906 L 190.79688 490.7168 L 186.39258 501.16602 L 151.56445 486.48828 L 155.96875 476.03906 z M 192.75586 514.01562 L 204.09375 514.01562 L 204.09375 544.25195 L 192.75586 544.25195 L 192.75586 514.01562 z M 45.353516 532.91211 L 83.148438 532.91211 L 83.148438 544.25195 L 45.353516 544.25195 L 45.353516 532.91211 z M 136.0625 532.91211 L 173.85742 532.91211 L 173.85742 544.25195 L 136.0625 544.25195 L 136.0625 532.91211 z M 109.60547 534.80273 A 3.7795276 3.7795276 0 0 1 113.38672 538.58203 A 3.7795276 3.7795276 0 0 1 109.60547 542.36133 A 3.7795276 3.7795276 0 0 1 105.82617 538.58203 A 3.7795276 3.7795276 0 0 1 109.60547 534.80273 z "
       transform="scale(0.26458333)" />
    <path
       id="path1335-5-3"
       style="fill:none;fill-opacity:1;stroke:#0000ff;stroke-width:0.264999;stroke-linecap:butt;stroke-linejoin:miter;stroke-miterlimit:4;stroke-dasharray:none;stroke-opacity:1"
       d="M 128.00006,205.99987 V 62.999815 H 74.999676 v 19.999812 c 0,0 8.742961,2.642661 10.000422,13.000241 1.257464,10.357582 -13.026821,40.966042 -22.578467,49.125162 -9.551644,8.15914 -10.449317,7.79589 -15.851227,9.78028 -1.77859,0.57834 -3.331737,2.33977 -2.875277,4.44314 0.456451,2.10344 8.825357,38.70111 10.304798,46.65142 z M 112,202.99954 h -9.99991 v -2.99982 H 112 Z m -34.999931,0 H 66.999647 v -2.99982 h 10.000422 z m 12.499496,-0.49972 a 1,1 0 0 1 -0.99994,-1.00045 1,1 0 0 1 0.99994,-0.99994 1,1 0 0 1 1.000456,0.99994 1,1 0 0 1 -1.000456,1.00045 z m 35.500155,-6.49986 h -2.99981 v -10.00042 h 2.99981 z m -67.999978,0 h -2.999817 v -10.00042 h 2.999817 z M 112,180.99984 h -9.99991 v -2.99981 H 112 Z m -30.000235,0 H 71.99986 v -2.99981 h 9.999905 z m -31.15262,-4.85551 -3.256648,-9.45472 2.836519,-0.97721 3.256647,9.45524 z M 112,172.99982 h -9.99991 V 170 H 112 Z m -30.000235,0 H 71.99986 V 170 h 9.999905 z m -29.044222,-15.59699 -0.979784,-2.83548 9.452134,-3.26543 0.979271,2.83548 z m 23.032701,-3.60649 -2.764686,-1.1653 3.883482,-9.21495 2.76469,1.16479 z m -6.911721,-2.913 -2.764689,-1.16531 3.883483,-9.21494 2.764689,1.16479 z m 55.923197,-6.8833 h -2.99981 v -10.00043 h 2.99981 z M 92.378459,95.592655 89.61377,94.42787 l 3.884001,-9.214943 2.76469,1.164788 z m 10.795721,-6.301941 -2.76469,-1.164785 3.88349,-9.215459 2.76469,1.165304 z m 21.82554,-0.290938 h -2.99981 V 78.99987 h 2.99981 z m -34.266638,-4.952151 -9.214943,-3.883485 1.165304,-2.764689 9.214943,3.883485 z M 80.999826,73.999661 h -2.999817 v -8.000029 h 2.999817 z m 39.000204,-4.999697 h -9.99991 v -3.000332 h 9.99991 z m -24.000086,0 h -9.999906 v -3.000332 h 9.999906 z m 7.000086,-0.500226 a 1,1 0 0 1 -1.00045,-0.99994 1,1 0 0 1 1.00045,-0.99994 1,1 0 0 1 0.99994,0.99994 1,1 0 0 1 -0.99994,0.99994 z" />
    <path
       id="rect976-6"
       style="fill:none;fill-opacity:1;stroke:#0200f9;stroke-width:0.264999;stroke-miterlimit:4;stroke-dasharray:none;stroke-opacity:1"
       d="m 249.00021,202.99972 h 4.9997 v 3.00034 h 9.99991 v -3.00034 h 6.00015 v -3.99975 h -0.99994 v -1.50017 h 0.99994 L 270,195.5 h 2 l 3.6e-4,1.9998 h 0.99994 v 1.50017 h -0.99994 v 3.99975 h 5.99963 v 3.00034 h 9.99991 v -3.00034 h 5.00021 v -50.00004 h -5.00021 v -2.99982 h -9.99991 v 2.99982 h -5.99963 v 4.00027 h 0.99994 v 1.50016 h -0.99994 L 272,160.5 h -2 l -3e-5,-1.99989 h -0.99994 v -1.50016 h 0.99994 v -4.00027 h -6.00015 v -2.99982 h -9.99991 v 2.99982 h -4.9997 z M 261,182.99991 V 173 h 3.00033 v 9.99991 z"
       sodipodi:nodetypes="cccccccccccccccccccccccccccccccccccccccccccccccccc" />
    <path
       id="rect1397-7"
       style="fill:none;fill-opacity:1;stroke:#0000fd;stroke-width:0.264999;stroke-miterlimit:4;stroke-dasharray:none;stroke-opacity:1"
       d="m 194,63 v 9.99991 h -2.99982 v 9.9999 H 194 V 94.5004 h 4.00027 v -0.99994 h 1.49965 V 94.5004 L 201.5,94.5 v 2 l -2.00008,2.8e-4 v 0.99994 h -1.49965 V 96.50028 H 194 v 11.49956 h -2.99982 v 10.00042 H 194 v 9.99991 h 50.00005 v -9.99991 h 3.00033 v -10.00042 h -3.00033 V 96.50028 h -3.99976 v 0.99994 h -1.50017 V 96.50028 L 236.5,96.5 v -2 l 2.00012,4e-4 v -0.99994 h 1.50017 v 0.99994 h 3.99976 V 82.99981 h 3.00033 v -9.9999 h -3.00033 V 63 Z"
       sodipodi:nodetypes="ccccccccccccccccccccccccccccccccccccccccccccc" />
  </g>
</svg>
