<?xml version="1.0" encoding="UTF-8" standalone="no"?>
<svg
   width="297mm"
   height="210mm"
   viewBox="0 0 297 210"
   version="1.1"
   id="svg8"
   inkscape:version="1.2.2 (b0a8486541, 2022-12-01)"
   sodipodi:docname="lasercut_parts_with_battery.svg"
   xmlns:inkscape="http://www.inkscape.org/namespaces/inkscape"
   xmlns:sodipodi="http://sodipodi.sourceforge.net/DTD/sodipodi-0.dtd"
   xmlns="http://www.w3.org/2000/svg"
   xmlns:svg="http://www.w3.org/2000/svg"
   xmlns:rdf="http://www.w3.org/1999/02/22-rdf-syntax-ns#"
   xmlns:cc="http://creativecommons.org/ns#"
   xmlns:dc="http://purl.org/dc/elements/1.1/">
  <defs
     id="defs2">
    <rect
       x="117"
       y="79"
       width="3"
       height="14"
       id="rect1177" />
  </defs>
  <sodipodi:namedview
     id="base"
     pagecolor="#ffffff"
     bordercolor="#666666"
     borderopacity="1.0"
     inkscape:pageopacity="0.0"
     inkscape:pageshadow="2"
     inkscape:zoom="0.70710678"
     inkscape:cx="556.49304"
     inkscape:cy="894.49008"
     inkscape:document-units="mm"
     inkscape:current-layer="layer1"
     inkscape:document-rotation="0"
     showgrid="true"
     inkscape:window-width="1455"
     inkscape:window-height="872"
     inkscape:window-x="223"
     inkscape:window-y="58"
     inkscape:window-maximized="0"
     inkscape:pagecheckerboard="0"
     inkscape:showpageshadow="2"
     inkscape:deskcolor="#d1d1d1">
    <inkscape:grid
       type="xygrid"
       id="grid951"
       units="mm"
       spacingx="0.5"
       spacingy="0.5"
       enabled="true" />
  </sodipodi:namedview>
  <metadata
     id="metadata5">
    <rdf:RDF>
      <cc:Work
         rdf:about="">
        <dc:format>image/svg+xml</dc:format>
        <dc:type
           rdf:resource="http://purl.org/dc/dcmitype/StillImage" />
      </cc:Work>
    </rdf:RDF>
  </metadata>
  <g
     inkscape:label="Ebene 1"
     inkscape:groupmode="layer"
     id="layer1">
    <path
       style="fill:none;stroke:#ff0000;stroke-width:0.2;stroke-linecap:butt;stroke-linejoin:miter;stroke-opacity:1;stroke-miterlimit:4;stroke-dasharray:none"
       d="M 278.76127,60.082321 V 4.184764 h 7.98537 v 2.994512 h 5.98902 v 49.908533 h -5.98902 v 2.994512 z"
       id="path963" />
    <path
       id="rect1103"
       style="fill:none;stroke:#ff0000;stroke-width:0.2;stroke-miterlimit:4;stroke-dasharray:none;stroke-opacity:1"
       d="m 276.76511,100.00906 h 2.99433 v 19.96322 h 2.99484 v 2.99484 h 9.98162 v -2.99484 -49.908582 -2.994332 h -9.98162 v 2.994332 h -2.99484 V 90.02744 h -2.99433 z" />
    <text
       xml:space="preserve"
       id="text1175"
       style="font-weight:bold;font-size:10.5833px;line-height:1.25;font-family:sans-serif;-inkscape-font-specification:'sans-serif Bold';white-space:pre;shape-inside:url(#rect1177);display:inline;fill:none;stroke:#ff0000;stroke-width:0.200367;stroke-miterlimit:4;stroke-dasharray:none;stroke-opacity:1"
       transform="matrix(0.99817065,0,0,0.99817065,0.27165788,0.19208141)" />
    <path
       id="rect1189"
       style="fill:none;fill-opacity:1;stroke:#ff0000;stroke-width:0.2;stroke-miterlimit:4;stroke-dasharray:none;stroke-opacity:1"
       d="m 184.93328,135.94306 v -2.99432 h 2.99484 v -9.98162 h -2.99484 V 73.058539 h 2.99484 v -9.981597 h -2.99484 -49.90858 -2.99434 v 9.981597 h 2.99434 v 49.908581 h -2.99434 v 9.98162 h 2.99434 v 2.99432 h 19.96374 v -2.99432 h 9.98162 v 2.99432 z m -2.99433,-5.98917 h -43.9194 V 71.062328 h 43.9194 z" />
    <path
       id="rect1296"
       style="fill:none;fill-opacity:1;stroke:#ff0000;stroke-width:0.2;stroke-miterlimit:4;stroke-dasharray:none;stroke-opacity:1"
       d="m 4.2643405,202.82072 h 9.9816065 v 2.99485 h 9.981617 v -2.99485 h 9.981617 v -49.90858 h -9.981617 v -2.99433 h -9.981617 v 2.99433 H 4.2643405 Z m 17.9670015,-24.9321 a 1.9963417,1.9963417 0 0 1 0,-0.0222 1.9963417,1.9963417 0 0 1 1.996222,-1.99621 1.9963417,1.9963417 0 0 1 1.996221,1.99621 1.9963417,1.9963417 0 0 1 -1.996221,1.99674 1.9963417,1.9963417 0 0 1 -1.996222,-1.97455 z m 0.998111,5.9804 a 0.99817065,0.99817065 0 0 1 0,-0.0134 0.99817065,0.99817065 0 0 1 0.998111,-0.99811 0.99817065,0.99817065 0 0 1 0.998111,0.99811 0.99817065,0.99817065 0 0 1 -0.998111,0.9981 0.99817065,0.99817065 0 0 1 -0.998111,-0.98469 z m 0,-11.97783 a 0.99817065,0.99817065 0 0 1 0,-0.0134 0.99817065,0.99817065 0 0 1 0.998111,-0.99862 0.99817065,0.99817065 0 0 1 0.998111,0.99862 0.99817065,0.99817065 0 0 1 -0.998111,0.99811 0.99817065,0.99817065 0 0 1 -0.998111,-0.98469 z" />
    <path
       id="rect1335"
       style="fill:none;fill-opacity:1;stroke:#ff0000;stroke-width:0.2;stroke-miterlimit:4;stroke-dasharray:none;stroke-opacity:1"
       d="m 269.77807,67.069695 h -9.98161 v 2.994332 h -9.98214 v 49.908583 h 9.98214 v 2.99484 h 9.98161 v -2.99484 l 0,-14.99961 H 262.778 V 85.064 h 7.00007 V 70.064027 Z"
       sodipodi:nodetypes="ccccccccccccccc" />
    <path
       id="rect1517"
       style="fill:none;fill-opacity:0.289575;stroke:#ff0000;stroke-width:0.2;stroke-miterlimit:4;stroke-dasharray:none;stroke-opacity:1"
       d="m 148.00079,4.1847575 v 2.9946492 h -9.98131 V 57.087988 h 9.98131 v 2.99465 h 9.98233 v -2.99465 h 44.91767 v 2.99465 h 9.98131 v -2.99465 h 41.92302 v 2.99465 h 9.98182 v -2.99465 h 9.98182 V 7.1794067 h -9.98182 V 4.1847575 h -9.97975 V 7.1794067 H 212.8821 V 4.1847575 h -9.98131 V 7.1794067 H 157.98312 V 4.1847575 Z m 112.33784,8.2491095 h 10.00042 v 15.000118 h -10.00042 z m -96.16726,6.573758 c 0.55142,3.3e-5 0.99812,0.446971 0.99788,0.998389 -3e-5,0.551223 -0.44665,0.998356 -0.99788,0.998389 -0.54599,1.7e-5 -0.991,-0.43898 -0.99838,-0.984953 -3e-5,-0.0045 -3e-5,-0.009 0,-0.01344 -2.4e-4,-0.551418 0.447,-0.998356 0.99838,-0.998389 z m 63.68397,0 c 0.55142,3.3e-5 0.99811,0.446971 0.99787,0.998389 -3e-5,0.551223 -0.44664,0.998356 -0.99787,0.998389 -0.54603,2.2e-5 -0.99101,-0.438976 -0.99839,-0.984953 -3e-5,-0.0045 -3e-5,-0.009 0,-0.01344 -2.4e-4,-0.551422 0.44696,-0.998361 0.99839,-0.998389 z m -40.92515,0.649056 h 11.97808 c 2.4594,0 4.73997,0.734527 6.63732,1.996261 h -25.25272 c 1.89728,-1.261734 4.17792,-1.996261 6.63732,-1.996261 z m 52.90272,4.491716 h 9.98182 V 39.12061 h -9.98182 z m -62.63959,0.499194 h 31.45131 c 0.65309,0.910747 1.18323,1.91622 1.56218,2.994649 h -34.57567 c 0.37893,-1.078479 0.9091,-2.083882 1.56218,-2.994649 z m -2.1978,5.989299 h 35.84639 c 0.0269,0.329362 0.0439,0.661319 0.0439,0.997872 v 0.997871 c 0,0.336284 -0.0145,0.669332 -0.0413,0.998389 h -35.85104 c -0.0269,-0.329057 -0.0413,-0.662105 -0.0413,-0.998389 v -0.997871 c 0,-0.336553 0.0165,-0.66851 0.0434,-0.997872 z m 85.05166,5.092712 c 0.54951,2.15e-4 0.99484,0.445778 0.99477,0.995288 7e-5,0.54951 -0.44526,0.995073 -0.99477,0.995288 -0.54971,7.2e-5 -0.99536,-0.445575 -0.99529,-0.995288 -7e-5,-0.549713 0.44558,-0.99536 0.99529,-0.995288 z m -84.41397,0.896069 h 34.57256 c -0.37953,1.077362 -0.9067,2.084452 -1.55959,2.99465 h -31.45389 c -0.65288,-0.910178 -1.17966,-1.917328 -1.55908,-2.99465 z m 82.50504,3.690731 h 3.81734 v 7.817094 h -3.81734 z m -77.84538,2.298051 h 25.25272 c -1.89776,1.261304 -4.17815,1.996777 -6.63732,1.996777 h -11.97808 c -2.45918,0 -4.73954,-0.735473 -6.63732,-1.996777 z m -16.1215,0.649056 c 0.55123,3.3e-5 0.99785,0.446649 0.99788,0.997872 -3e-5,0.551223 -0.44665,0.998356 -0.99788,0.998389 -0.54599,1.7e-5 -0.99101,-0.438976 -0.99838,-0.984953 -3e-5,-0.0045 -3e-5,-0.009 0,-0.01344 3e-5,-0.551223 0.44719,-0.997839 0.99838,-0.997872 z m 63.68397,0 c 0.55123,3.3e-5 0.99784,0.446649 0.99787,0.997872 -3e-5,0.551223 -0.44664,0.998356 -0.99787,0.998389 -0.54603,2.2e-5 -0.99102,-0.438972 -0.99839,-0.984953 -3e-5,-0.0045 -3e-5,-0.009 0,-0.01344 3e-5,-0.551227 0.44716,-0.997844 0.99839,-0.997872 z m 32.19184,7.466211 c 0.54951,2.15e-4 0.99484,0.445778 0.99477,0.995288 -2.1e-4,0.549308 -0.44546,0.994556 -0.99477,0.994771 -0.54951,7.2e-5 -0.99508,-0.44526 -0.99529,-0.994771 -7e-5,-0.549713 0.44558,-0.99536 0.99529,-0.995288 z"
       sodipodi:nodetypes="ccccccccccccccccccccccccccccccccccccsscccsssccssccscccccccccccccsccssccccccccccccccscccsscccssccccsscccccccccccc" />
    <path
       id="rect1874"
       style="fill:none;fill-opacity:0.289575;stroke:#ff0000;stroke-width:0.2;stroke-miterlimit:4;stroke-dasharray:none;stroke-opacity:1"
       d="m 272.77248,145.92503 v -2.99434 h 19.96322 v -1.99674 h -1.99621 l -1.7e-4,-7.98517 h 1.99634 v -1.99634 h -49.90853 l -1e-5,11.97825 h 19.96323 v 2.99434 z"
       sodipodi:nodetypes="ccccccccccccc" />
    <path
       id="rect1908"
       style="fill:none;fill-opacity:0.289575;stroke:#ff0000;stroke-width:0.2;stroke-miterlimit:4;stroke-dasharray:none;stroke-opacity:1"
       d="m 114.06333,60.082101 h 9.98162 v -2.994332 h 1.99621 V 14.166471 h 2.99485 V 52.088 h 4.99055 V 7.1791862 h -9.98161 V 4.1848638 h -9.98162 V 7.1791862 57.087769 Z"
       sodipodi:nodetypes="ccccccccccccccc" />
    <path
       id="rect1943"
       style="fill:none;fill-opacity:0.289575;stroke:#ff0000;stroke-width:0.2;stroke-miterlimit:4;stroke-dasharray:none;stroke-opacity:1"
       d="m 93.101529,60.082001 h 9.981621 v -2.994332 h 5.98917 V 7.1790963 h -5.98917 V 4.184764 H 93.101529 V 7.1790963 57.087669 Z" />
    <path
       id="rect1984"
       style="fill:none;fill-opacity:0.289575;stroke:#ff0000;stroke-width:0.2;stroke-miterlimit:4;stroke-dasharray:none;stroke-opacity:1"
       d="m 134.02644,145.92494 v 9.98182 h -2.99464 v 9.98182 h 2.99464 v 7.99942 h 1.99956 v 3.964 h -1.99956 v 7.9997 h -2.99464 v 9.98182 h 2.99464 v 9.98182 h 49.90859 v -9.98182 h 2.99465 v -9.98182 h -2.99465 v -19.96312 h 2.99465 v -9.98182 h -2.99465 v -9.98182 z"
       sodipodi:nodetypes="ccccccccccccccccccccccccc" />
    <path
       id="rect1984-1"
       style="fill:none;fill-opacity:0.289575;stroke:#ff0000;stroke-width:0.2;stroke-miterlimit:4;stroke-dasharray:none;stroke-opacity:1"
       d="m 242.82701,205.81529 v -9.98162 h 2.99483 v -9.98213 h -2.99483 v -19.96322 h 2.99483 v -9.98162 h -2.99483 v -9.98161 h -10.68055 v 51.10636 h -2.99483 v -51.10636 h -22.55834 v 51.10636 h -2.99483 v -51.10636 h -10.68005 v 9.98161 h -2.99433 v 9.98162 h 2.99433 v 7.99968 h 1.99959 v 3.964 h -1.99959 v 7.99954 h -2.99433 v 9.98213 h 2.99433 v 9.98162 z"
       sodipodi:nodetypes="ccccccccccccccccccccccccccccccccc" />
    <path
       id="path1335-5"
       style="fill:none;fill-opacity:1;stroke:#ff0000;stroke-width:0.2;stroke-linecap:butt;stroke-linejoin:miter;stroke-miterlimit:4;stroke-dasharray:none;stroke-opacity:1"
       d="M 4.2640969,4.1845204 V 146.92298 H 57.167522 v -19.96323 c 0,0 -8.726967,-2.63782 -9.982128,-12.97646 -1.255164,-10.33863 13.002991,-40.891095 22.537163,-49.035295 9.534171,-8.144216 10.430201,-7.781628 15.82223,-9.762389 1.775336,-0.577281 3.325642,-2.335483 2.870017,-4.435012 C 87.959188,48.651002 79.605592,12.120286 78.128857,4.1845204 Z M 20.234884,7.1793652 h 9.981614 v 2.9943288 h -9.981614 z m 34.935904,0 h 9.982128 v 2.9943288 h -9.982128 z m -12.47663,0.498797 A 0.99817065,0.99817065 0 0 1 43.692269,8.6767877 0.99817065,0.99817065 0 0 1 42.694158,9.6748975 0.99817065,0.99817065 0 0 1 41.695533,8.6767877 0.99817065,0.99817065 0 0 1 42.694158,7.6781622 Z M 7.2589417,14.166133 h 2.9943293 v 9.982129 H 7.2589417 Z m 67.8755863,0 h 2.994329 v 9.982129 H 75.134528 Z M 20.234884,29.138811 h 9.981614 v 2.994329 h -9.981614 z m 29.945354,0 h 9.981613 v 2.994329 h -9.981613 z m 31.095632,4.846634 3.25069,9.437426 -2.83133,0.975414 -3.25069,-9.437941 z m -61.040986,3.13876 h 9.981614 v 2.994329 h -9.981614 z m 29.945354,0 h 9.981613 v 2.994329 h -9.981613 z m 28.99109,15.568449 0.977992,2.830297 -9.434843,3.259461 -0.977479,-2.8303 z m -22.990566,3.599901 2.759629,1.163169 -3.876378,9.198086 -2.759632,-1.162658 z m 6.899077,2.90767 2.759632,1.163172 -3.876379,9.198083 -2.759631,-1.162655 z m -55.8208973,6.87071 h 2.9943293 v 9.982127 H 7.2589417 Z m 32.5615883,48.318825 2.759632,1.16266 -3.876896,9.19808 -2.759632,-1.16266 z m -10.775973,6.29041 2.75963,1.16266 -3.876379,9.1986 -2.759632,-1.16317 z m -21.7856153,0.29041 h 2.9943293 v 9.98161 H 7.2589417 Z m 34.2039563,4.94309 9.198085,3.87638 -1.163172,2.75963 -9.198086,-3.87638 z m 9.715451,10.02958 h 2.994329 v 7.9854 H 51.178349 Z M 12.24949,140.9338 h 9.981613 v 2.99485 H 12.24949 Z m 23.956181,0 h 9.981613 v 2.99485 h -9.981613 z m -6.987284,0.49932 a 0.99817065,0.99817065 0 0 1 0.998626,0.99811 0.99817065,0.99817065 0 0 1 -0.998626,0.99811 0.99817065,0.99817065 0 0 1 -0.99811,-0.99811 0.99817065,0.99817065 0 0 1 0.99811,-0.99811 z" />
    <path
       id="path1335-5-3"
       style="fill:none;fill-opacity:1;stroke:#ff0000;stroke-width:0.2;stroke-linecap:butt;stroke-linejoin:miter;stroke-miterlimit:4;stroke-dasharray:none;stroke-opacity:1"
       d="M 128.03756,205.81511 V 63.076648 H 75.134134 v 19.963225 c 0,0 8.726967,2.637827 9.982127,12.976459 1.255164,10.338638 -13.00299,40.891098 -22.537163,49.035298 -9.534171,8.14421 -10.430201,7.78163 -15.82223,9.76239 -1.775336,0.57728 -3.325642,2.33549 -2.870017,4.43501 0.455616,2.09959 8.809213,38.63031 10.285947,46.56608 z m -15.97079,-2.99484 h -9.98162 v -2.99434 h 9.98162 z m -34.935903,0 h -9.982128 v -2.99434 h 9.982128 z m 12.47663,-0.49881 a 0.99817065,0.99817065 0 0 1 -0.998111,-0.99862 0.99817065,0.99817065 0 0 1 0.998111,-0.99811 0.99817065,0.99817065 0 0 1 0.998626,0.99811 0.99817065,0.99817065 0 0 1 -0.998626,0.99862 z m 35.435213,-6.48797 h -2.99432 v -9.98213 h 2.99432 z m -67.875582,0 h -2.99433 v -9.98213 h 2.99433 z m 54.899642,-14.97268 h -9.98162 v -2.99432 h 9.98162 z m -29.945353,0 h -9.981612 v -2.99432 h 9.981612 z m -31.095631,-4.84663 -3.250691,-9.43742 2.83133,-0.97542 3.25069,9.43794 z m 61.040984,-3.13876 h -9.98162 v -2.99433 h 9.98162 z m -29.945353,0 h -9.981612 v -2.99433 h 9.981612 z m -28.99109,-15.56845 -0.977992,-2.8303 9.434843,-3.25945 0.97748,2.83029 z m 22.990566,-3.5999 -2.759628,-1.16316 3.876377,-9.1981 2.759633,1.16266 z m -6.899077,-2.90767 -2.759631,-1.16317 3.876378,-9.19809 2.759632,1.16266 z m 55.820894,-6.8707 h -2.99432 v -9.98214 h 2.99432 z M 92.481125,95.609864 89.721493,94.44721 l 3.876896,-9.198086 2.759633,1.162658 z m 10.775975,-6.290412 -2.75964,-1.162654 3.87639,-9.198601 2.75963,1.163172 z m 21.78561,-0.290406 h -2.99432 v -9.981613 h 2.99432 z m -34.203952,-4.943092 -9.198086,-3.876381 1.163172,-2.759631 9.198086,3.876381 z M 81.123307,74.056371 h -2.994329 v -7.985394 h 2.994329 z m 38.928863,-4.99055 h -9.98162 v -2.994844 h 9.98162 z m -23.956185,0 h -9.981613 v -2.994844 h 9.981613 z m 6.987285,-0.499311 a 0.99817065,0.99817065 0 0 1 -0.99862,-0.998111 0.99817065,0.99817065 0 0 1 0.99862,-0.998111 0.99817065,0.99817065 0 0 1 0.99811,0.998111 0.99817065,0.99817065 0 0 1 -0.99811,0.998111 z" />
    <path
       id="rect976-6"
       style="fill:none;fill-opacity:1;stroke:#ff0000;stroke-width:0.2;stroke-miterlimit:4;stroke-dasharray:none;stroke-opacity:1"
       d="m 248.81636,202.82044 h 4.99055 v 2.99486 h 9.98162 v -2.99486 h 5.98917 v -3.99243 h -0.99811 v -1.49742 h 0.99811 l 3e-5,-1.99615 h 1.99635 l 3.6e-4,1.99615 h 0.99811 v 1.49742 h -0.99811 v 3.99243 h 5.98865 v 2.99486 h 9.98162 v -2.99486 h 4.99106 v -49.90857 h -4.99106 v -2.99433 h -9.98162 v 2.99433 h -5.98865 v 3.99295 h 0.99811 v 1.49742 h -0.99811 l -3.6e-4,1.99623 h -1.99635 l -3e-5,-1.99623 h -0.99811 v -1.49742 h 0.99811 v -3.99295 h -5.98917 v -2.99433 h -9.98162 v 2.99433 h -4.99055 z m 11.97784,-19.96322 v -9.98162 h 2.99484 v 9.98162 z"
       sodipodi:nodetypes="cccccccccccccccccccccccccccccccccccccccccccccccccc" />
    <path
       id="rect1397-7"
       style="fill:none;fill-opacity:1;stroke:#ff0000;stroke-width:0.2;stroke-miterlimit:4;stroke-dasharray:none;stroke-opacity:1"
       d="M 193.91685 63.07677 L 193.91685 73.05859 L 190.9222 73.05859 L 190.9222 83.039893 L 193.91685 83.039893 L 193.91685 94.519812 L 197.90988 94.519812 L 197.90988 93.521423 L 199.40643 93.521423 L 199.40643 94.519812 L 201.40321 94.519295 L 201.40321 96.515556 L 199.40643 96.516073 L 199.40643 97.513944 L 197.90988 97.513944 L 197.90988 96.516073 L 193.91685 96.516073 L 193.91685 107.99444 L 190.9222 107.99444 L 190.9222 117.97626 L 193.91685 117.97626 L 193.91685 127.95808 L 243.82543 127.95808 L 243.82543 117.97626 L 246.82008 117.97626 L 246.82008 107.99444 L 243.82543 107.99444 L 243.82543 96.516073 L 239.83291 96.516073 L 239.83291 97.513944 L 238.33532 97.513944 L 238.33532 96.516073 L 236.33906 96.515556 L 236.33906 94.519295 L 238.33532 94.519812 L 238.33532 93.521423 L 239.83291 93.521423 L 239.83291 94.519812 L 243.82543 94.519812 L 243.82543 83.039893 L 246.82008 83.039893 L 246.82008 73.05859 L 243.82543 73.05859 L 243.82543 63.07677 L 193.91685 63.07677 z M 205.959 73.088045 L 209.78306 73.088045 L 209.78306 74.912223 L 205.959 74.912223 L 205.959 73.088045 z M 227.9587 73.088045 L 231.78327 73.088045 L 231.78327 74.912223 L 227.9587 74.912223 L 227.9587 73.088045 z M 205.959 86.087769 L 209.78306 86.087769 L 209.78306 87.912463 L 205.959 87.912463 L 205.959 86.087769 z M 227.9587 86.087769 L 231.78327 86.087769 L 231.78327 87.912463 L 227.9587 87.912463 L 227.9587 86.087769 z " />
  </g>
</svg>
